<svg width="40" height="40" viewBox="0 0 40 40" fill="none" xmlns="http://www.w3.org/2000/svg">
<g clip-path="url(#clip0_1014_21214)">
<path d="M20.002 37.7605L27.9261 35.7594C32.4491 32.0036 35.3301 26.3386 35.3301 20.0001C35.3301 10.2232 28.4777 2.04686 19.3135 0.0116272C8.5857 0.373424 0 9.18405 0 20C0 25.5556 2.26562 30.5817 5.92281 34.2059L20.002 37.7605Z" fill="#CBE2FF"/>
<path d="M34.9152 20C34.9152 26.5559 31.7604 32.3743 26.8866 36.0218L34.0766 34.2061C37.734 30.5819 40 25.5558 40 20C40 8.9543 31.0457 0 20 0C19.1388 0 18.2902 0.0545312 17.4576 0.160156C27.3028 1.40922 34.9152 9.81562 34.9152 20Z" fill="#BED8FB"/>
<path d="M24.9704 7.57437C24.9704 6.55289 24.1423 5.72484 23.1209 5.72484H16.7473C14.3964 5.72484 12.4906 7.63062 12.4906 9.98148V14.7075H27.507V10.0485C27.507 9.02703 26.6789 8.19898 25.6574 8.19898H25.5951C25.2501 8.19898 24.9704 7.91937 24.9704 7.57437V7.57437Z" fill="#365E7D"/>
<path d="M25.6574 8.19898H25.5951C25.2501 8.19898 24.9704 7.91929 24.9704 7.57429C24.9704 6.55281 24.1423 5.72476 23.1209 5.72476H22.422V14.7074H27.5069V10.0484C27.5069 9.02711 26.6788 8.19898 25.6574 8.19898V8.19898Z" fill="#2B4D66"/>
<path d="M33.2066 29.0902C32.7177 28.6073 32.1128 28.2337 31.4262 28.0164L25.9659 26.2877L20.0013 26.078L14.0341 26.2877L8.57383 28.0164C6.72664 28.6012 5.47125 30.3155 5.47125 32.253V33.7448C8.97039 37.4423 13.8659 39.8048 19.3137 39.9885C25.4174 38.6328 30.4956 34.5529 33.2066 29.0902V29.0902Z" fill="#4A80AA"/>
<path d="M34.5287 33.7447V32.253C34.5287 30.883 33.9006 29.6252 32.8799 28.7988C29.9806 34.7071 24.2532 38.976 17.4623 39.8392C18.282 39.943 19.1168 39.9984 19.9643 39.9999C20.7786 39.9987 21.5821 39.9515 22.3724 39.8607C27.1405 39.2973 31.3947 37.0565 34.5287 33.7447Z" fill="#407093"/>
<path d="M20.4528 39.7006C21.6629 37.2982 24.8139 30.4766 23.9154 26.2155L20.0012 24.6922L16.0834 26.2156C15.1572 30.6082 18.5342 37.7216 19.6523 39.9102C19.9212 39.8456 20.1881 39.7757 20.4528 39.7006V39.7006Z" fill="#E4F6FF"/>
<path d="M22.5154 37.796L20.9284 31.5525H19.0716L17.4884 37.779L19.4461 39.9584C19.943 39.8446 20.4331 39.7126 20.9156 39.5633L22.5154 37.796Z" fill="#E28086"/>
<path d="M19.4767 39.9926C19.6388 39.9968 19.8013 39.9997 19.9643 40C20.153 39.9997 20.341 39.9964 20.5285 39.9912L21.5369 38.8772C20.7432 39.1556 19.9267 39.3855 19.0909 39.563L19.4767 39.9926Z" fill="#DD636E"/>
<path d="M23.3417 25.6393V22.1185H16.6558V25.6393C16.6558 27.4855 19.9988 29.5023 19.9988 29.5023C19.9988 29.5023 23.3417 27.4855 23.3417 25.6393Z" fill="#FFDDCE"/>
<path d="M27.507 14.0873H26.2289C25.5181 14.0873 24.942 13.5112 24.942 12.8004V12.0961C24.942 11.1702 24.0361 10.5156 23.157 10.8062C21.1068 11.4838 18.8931 11.484 16.8427 10.8066L16.8403 10.8059C15.9613 10.5155 15.0556 11.1701 15.0556 12.0959V12.8005C15.0556 13.5113 14.4794 14.0874 13.7686 14.0874H12.4906V16.192C12.4906 16.7297 12.9266 17.1657 13.4644 17.1657C13.6341 17.1657 13.7721 17.2986 13.7828 17.468C13.9881 20.7233 16.6918 23.3003 19.9988 23.3003C23.3059 23.3003 26.0095 20.7233 26.2148 17.468C26.2256 17.2987 26.3636 17.1657 26.5333 17.1657C27.071 17.1657 27.507 16.7298 27.507 16.192V14.0873H27.507Z" fill="#FFDDCE"/>
<path d="M26.2289 14.0873C25.5181 14.0873 24.942 13.5112 24.942 12.8004V12.0961C24.942 11.1702 24.0361 10.5156 23.157 10.8062C22.9142 10.8864 22.669 10.9564 22.4221 11.0177V17.9686C22.3879 20.2302 21.1487 22.1984 19.3186 23.2622C19.5421 23.2865 19.7688 23.3002 19.9988 23.3002C23.3058 23.3002 26.0095 20.7231 26.2148 17.4678C26.2255 17.2985 26.3635 17.1655 26.5332 17.1655C27.0709 17.1655 27.507 16.7296 27.507 16.1918V14.0873H26.2289V14.0873Z" fill="#FFCBBE"/>
<path d="M16.6558 24.6922L14.0341 26.8224L16.7834 30.2219C17.1179 30.5475 17.6443 30.5675 18.0026 30.2683L20.0702 28.5412L16.6558 24.6922Z" fill="#F4FBFF"/>
<path d="M23.343 24.6922L20.0702 28.5412L22.0134 30.2027C22.3695 30.5071 22.8984 30.4918 23.2362 30.1673L25.9659 26.8224L23.343 24.6922Z" fill="#F4FBFF"/>
<path d="M16.6558 24.6922L12.8077 26.5827C12.5147 26.7266 12.397 27.083 12.5466 27.3731L13.3005 28.8348C13.4959 29.2136 13.4238 29.6752 13.1223 29.9762C12.967 30.1312 12.7989 30.299 12.6532 30.4444C12.3924 30.7048 12.2987 31.0894 12.4136 31.4395C13.3238 34.2143 17.7046 38.4573 19.3625 39.9925C19.474 39.9955 19.5857 39.9975 19.6977 39.9987C18.4954 37.6602 14.235 28.7757 16.6558 24.6922V24.6922Z" fill="#365E7D"/>
<path d="M26.8765 29.9762C26.5748 29.6751 26.5028 29.2135 26.6982 28.8348L27.4521 27.373C27.6017 27.083 27.4841 26.7266 27.1911 26.5827L23.343 24.6922C25.7631 28.7746 21.5057 37.6554 20.3021 39.9969C20.4152 39.9949 20.5281 39.9921 20.6408 39.9884C22.3021 38.4497 26.6758 34.2118 27.5852 31.4396C27.7 31.0895 27.6063 30.7048 27.3455 30.4445C27.1998 30.299 27.0317 30.1311 26.8765 29.9762V29.9762Z" fill="#365E7D"/>
<path d="M20.0702 28.5412L18.0342 30.2415L19.0716 31.5525H20.9284L21.9658 30.1641L20.0702 28.5412Z" fill="#DD636E"/>
</g>
<defs>
<clipPath id="clip0_1014_21214">
<rect width="40" height="40" fill="white"/>
</clipPath>
</defs>
</svg>
